<svg xmlns="http://www.w3.org/2000/svg" xmlns:xlink="http://www.w3.org/1999/xlink" viewBox="0 0 170 53.054">
  <defs>
    <style>
      .cls-1 {
        clip-path: url(#clip-path);
      }

      .cls-2 {
        fill: #cb6461;
      }
    </style>
    <clipPath id="clip-path">
      <rect id="Rectangle_2" data-name="Rectangle 2" width="170" height="53.054"/>
    </clipPath>
  </defs>
  <g id="logo" transform="translate(-129.94 73.16)">
    <g id="Group_2" data-name="Group 2" transform="translate(129.94 -73.16)">
      <g id="Group_1" data-name="Group 1" class="cls-1">
        <path id="Path_1" data-name="Path 1" class="cls-2" d="M338.775,333.8a7.894,7.894,0,0,1-4.833,6.214,8.037,8.037,0,0,1-4.035.532,10.411,10.411,0,0,1-4.035-1.381,24.85,24.85,0,0,1-6.055-5.15c3.5-4.3,5.63-8.233,6.428-11.737a13.3,13.3,0,0,0,.266-4.515,8.65,8.65,0,0,0-1.433-3.611,8.95,8.95,0,0,0-7.487-3.77,9.084,9.084,0,0,0-7.487,3.77,8.623,8.623,0,0,0-1.433,3.611,11.011,11.011,0,0,0,.266,4.515c.8,3.5,2.976,7.487,6.428,11.789a23.787,23.787,0,0,1-6.055,5.15,10.43,10.43,0,0,1-4.035,1.381,8.479,8.479,0,0,1-4.035-.532,7.894,7.894,0,0,1-4.833-6.214,8.834,8.834,0,0,1,.476-4.142c.159-.532.425-1.063.69-1.7.373-.849.8-1.754,1.222-2.655l.052-.107c3.666-7.912,7.594-15.986,11.685-23.846l.159-.318c.425-.8.849-1.647,1.274-2.444a11.714,11.714,0,0,1,1.488-2.337,5.579,5.579,0,0,1,8.5,0,11.712,11.712,0,0,1,1.488,2.337c.425.8.849,1.647,1.274,2.444l.159.318c4.035,7.912,7.967,15.986,11.63,23.9v.052c.425.849.8,1.805,1.222,2.655.266.639.532,1.167.69,1.7a9.172,9.172,0,0,1,.362,4.094Zm-21.192-2.5c-2.869-3.611-4.726-7.011-5.364-9.876a8.565,8.565,0,0,1-.159-3.238,5.157,5.157,0,0,1,.849-2.23,5.643,5.643,0,0,1,4.674-2.337,5.438,5.438,0,0,1,4.674,2.337,5.173,5.173,0,0,1,.849,2.23,8.521,8.521,0,0,1-.159,3.238c-.639,2.813-2.5,6.214-5.364,9.876Zm23.953-2.762c-.266-.639-.532-1.329-.8-1.912-.425-.956-.849-1.857-1.222-2.71l-.052-.052c-3.666-7.967-7.594-16.038-11.737-24.005l-.159-.318c-.425-.8-.849-1.647-1.274-2.5a15.32,15.32,0,0,0-1.912-2.92,8.581,8.581,0,0,0-6.745-3.293,8.9,8.9,0,0,0-6.8,3.186,18.291,18.291,0,0,0-1.912,2.92c-.425.849-.849,1.7-1.274,2.5l-.159.318c-4.091,7.967-8.071,16.038-11.737,24.005l-.052.107c-.373.849-.8,1.754-1.222,2.71q-.4.875-.8,1.912a11.922,11.922,0,0,0-.639,5.734,11.283,11.283,0,0,0,6.9,8.816,10.915,10.915,0,0,0,4.3.849,11.631,11.631,0,0,0,1.381-.107,14.05,14.05,0,0,0,5.309-1.805,26.936,26.936,0,0,0,6.586-5.523,27.924,27.924,0,0,0,6.586,5.523,14.09,14.09,0,0,0,5.309,1.805,12.394,12.394,0,0,0,1.381.107,10.725,10.725,0,0,0,4.3-.849,11.261,11.261,0,0,0,6.9-8.816,10.033,10.033,0,0,0-.476-5.682Zm52.947-18.693a8.129,8.129,0,0,1,2.337.266v4.726s-4.249-1.433-6.9,1.595v13.967h-5.1V310.385h4.3a.759.759,0,0,1,.742.742v.849a6.977,6.977,0,0,1,4.622-2.123Zm13.808,16.2a5.2,5.2,0,0,1-4.3-2.178v-7.118a5.761,5.761,0,0,1,4.3-2.178c3.4,0,6,2.123,6,5.737s-2.6,5.737-6,5.737Zm.849-16.2a6.636,6.636,0,0,0-5.15,2.123V300.771h-5.1v29.58h4.3a.759.759,0,0,0,.742-.742v-.9h0a6.575,6.575,0,0,0,5.15,2.178,10.519,10.519,0,0,0,.055-21.033Zm30.643,8.654v11.9h-5.1V319.091c0-3.293-1.063-4.619-3.928-4.619a5.7,5.7,0,0,0-4.142,1.964v13.915h-5.1v-19.97h4.035a.759.759,0,0,1,.742.742v.849a7.318,7.318,0,0,1,5.416-2.123,8.264,8.264,0,0,1,5.575,1.912c1.809,1.488,2.5,3.4,2.5,6.745Zm12.054,7.543a5.2,5.2,0,0,1-4.3-2.178v-7.118a5.761,5.761,0,0,1,4.3-2.178c3.4,0,6,2.123,6,5.737s-2.6,5.737-6,5.737Zm.849-16.2a6.636,6.636,0,0,0-5.15,2.123V300.771h-5.1v29.58h4.3a.759.759,0,0,0,.742-.742v-.9h0a6.575,6.575,0,0,0,5.15,2.178,10.519,10.519,0,0,0,.055-21.033Zm-76.154.532h5.1v19.97h-5.1v-19.97ZM368.3,323.927a5.282,5.282,0,0,1-4.3,2.178c-3.4,0-6-2.123-6-5.734s2.6-5.737,6-5.737a5.425,5.425,0,0,1,4.3,2.178v7.115Zm0-12.8v.849a6.636,6.636,0,0,0-5.15-2.123,10.517,10.517,0,0,0,0,21.029,6.444,6.444,0,0,0,5.15-2.178v.9a.724.724,0,0,0,.742.742h4.3v-19.97h-4.3a.77.77,0,0,0-.742.749Zm14.233-6.956a3.452,3.452,0,1,1-3.452-3.452,3.444,3.444,0,0,1,3.452,3.452Z" transform="translate(-292.94 -290.84)"/>
      </g>
    </g>
  </g>
</svg>
